<svg width="18" height="21" viewBox="0 0 18 21" fill="none" xmlns="http://www.w3.org/2000/svg">
<path d="M9.00003 3.33232e-06C8.29155 -0.00105216 7.60556 0.248665 7.06356 0.704926C6.52155 1.16119 6.15852 1.79455 6.03874 2.49283C5.91897 3.19111 6.05019 3.90925 6.40916 4.52005C6.76814 5.13085 7.3317 5.5949 8.00003 5.83V8H5.00003C4.20438 8 3.44132 8.31607 2.87871 8.87868C2.3161 9.44129 2.00003 10.2044 2.00003 11V12.17C1.33254 12.4059 0.769936 12.8702 0.41167 13.4808C0.0534039 14.0914 -0.0774567 14.809 0.0422185 15.5068C0.161894 16.2046 0.524399 16.8375 1.06566 17.2939C1.60692 17.7502 2.29208 18.0005 3.00003 18.0005C3.70798 18.0005 4.39314 17.7502 4.9344 17.2939C5.47566 16.8375 5.83817 16.2046 5.95784 15.5068C6.07752 14.809 5.94666 14.0914 5.58839 13.4808C5.23012 12.8702 4.66752 12.4059 4.00003 12.17V11C4.00003 10.7348 4.10539 10.4804 4.29292 10.2929C4.48046 10.1054 4.73481 10 5.00003 10H13C13.2652 10 13.5196 10.1054 13.7071 10.2929C13.8947 10.4804 14 10.7348 14 11V12.17C13.3325 12.4059 12.7699 12.8702 12.4117 13.4808C12.0534 14.0914 11.9225 14.809 12.0422 15.5068C12.1619 16.2046 12.5244 16.8375 13.0657 17.2939C13.6069 17.7502 14.2921 18.0005 15 18.0005C15.708 18.0005 16.3931 17.7502 16.9344 17.2939C17.4757 16.8375 17.8382 16.2046 17.9578 15.5068C18.0775 14.809 17.9467 14.0914 17.5884 13.4808C17.2301 12.8702 16.6675 12.4059 16 12.17V11C16 10.2044 15.684 9.44129 15.1214 8.87868C14.5587 8.31607 13.7957 8 13 8H10V5.83C10.6672 5.59385 11.2294 5.12952 11.5874 4.51904C11.9454 3.90855 12.0761 3.19118 11.9565 2.49366C11.8368 1.79614 11.4745 1.16334 10.9335 0.707048C10.3926 0.250755 9.70774 0.000328335 9.00003 3.33232e-06Z" fill="black" fill-opacity="0.8"/>
</svg>
