<svg width="19" height="20" viewBox="0 0 19 20" fill="none" xmlns="http://www.w3.org/2000/svg">
<path fill-rule="evenodd" clip-rule="evenodd" d="M11.2789 0.152C10.9089 -4.47035e-08 10.4389 0 9.49995 0C8.56095 0 8.09195 -4.47035e-08 7.72095 0.152C7.47684 0.251745 7.25486 0.398782 7.06779 0.584647C6.88073 0.770512 6.73226 0.991536 6.63095 1.235C6.53695 1.458 6.50095 1.719 6.48595 2.098C6.47881 2.3725 6.40202 2.64068 6.26278 2.87736C6.12354 3.11403 5.92642 3.31142 5.68995 3.451C5.44869 3.5851 5.17749 3.65615 4.90148 3.65754C4.62546 3.65894 4.35355 3.59065 4.11095 3.459C3.77295 3.281 3.52795 3.183 3.28595 3.151C2.75653 3.08192 2.22122 3.2242 1.79595 3.547C1.47795 3.789 1.24295 4.193 0.773949 5C0.303949 5.807 0.0699493 6.21 0.0169493 6.605C-0.0530507 7.131 0.0909494 7.663 0.416949 8.084C0.564949 8.276 0.773949 8.437 1.09695 8.639C1.57395 8.936 1.87995 9.442 1.87995 10C1.87995 10.558 1.57395 11.064 1.09795 11.36C0.773949 11.563 0.564949 11.724 0.415949 11.916C0.255516 12.1242 0.137699 12.362 0.069235 12.6158C0.000771299 12.8696 -0.016996 13.1343 0.0169493 13.395C0.0699493 13.789 0.303949 14.193 0.773949 15C1.24395 15.807 1.47795 16.21 1.79595 16.453C2.21995 16.776 2.75595 16.918 3.28595 16.849C3.52795 16.817 3.77295 16.719 4.11095 16.541C4.35367 16.4092 4.62577 16.3408 4.90198 16.3422C5.17819 16.3436 5.44957 16.4147 5.69095 16.549C6.17695 16.829 6.46495 17.344 6.48595 17.902C6.50095 18.282 6.53695 18.542 6.63095 18.765C6.83495 19.255 7.22695 19.645 7.72095 19.848C8.09095 20 8.56095 20 9.49995 20C10.4389 20 10.9089 20 11.2789 19.848C11.5231 19.7483 11.745 19.6012 11.9321 19.4154C12.1192 19.2295 12.2676 19.0085 12.3689 18.765C12.4629 18.542 12.4989 18.282 12.5139 17.902C12.5339 17.344 12.8229 16.828 13.3099 16.549C13.5512 16.4149 13.8224 16.3439 14.0984 16.3425C14.3744 16.3411 14.6463 16.4093 14.8889 16.541C15.2269 16.719 15.472 16.817 15.714 16.849C16.2439 16.919 16.7799 16.776 17.2039 16.453C17.5219 16.211 17.7569 15.807 18.2259 15C18.6959 14.193 18.9299 13.79 18.9829 13.395C19.0168 13.1343 18.9988 12.8695 18.9302 12.6157C18.8616 12.3619 18.7436 12.1241 18.5829 11.916C18.4349 11.724 18.2259 11.563 17.9029 11.361C17.4259 11.064 17.1199 10.558 17.1199 10C17.1199 9.442 17.4259 8.936 17.9019 8.64C18.2259 8.437 18.4349 8.276 18.5839 8.084C18.7444 7.87579 18.8622 7.63799 18.9307 7.38422C18.9991 7.13044 19.0169 6.86565 18.9829 6.605C18.9299 6.211 18.6959 5.807 18.2259 5C17.7559 4.193 17.5219 3.79 17.2039 3.547C16.7787 3.2242 16.2434 3.08192 15.714 3.151C15.472 3.183 15.2269 3.281 14.8889 3.459C14.6462 3.59083 14.3741 3.65922 14.0979 3.65782C13.8217 3.65642 13.5503 3.58528 13.3089 3.451C13.0727 3.3113 12.8757 3.11385 12.7367 2.87719C12.5976 2.64052 12.521 2.37241 12.5139 2.098C12.4989 1.718 12.4629 1.458 12.3689 1.235C12.2676 0.991536 12.1192 0.770512 11.9321 0.584647C11.745 0.398782 11.5231 0.251745 11.2789 0.152ZM9.49995 13C11.1699 13 12.5229 11.657 12.5229 10C12.5229 8.343 11.1689 7 9.49995 7C7.83095 7 6.47695 8.343 6.47695 10C6.47695 11.657 7.83095 13 9.49995 13Z" fill="black" fill-opacity="0.8"/>
</svg>
