<svg width="20" height="20" viewBox="0 0 20 20" fill="none" xmlns="http://www.w3.org/2000/svg">
<path d="M16.72 12.76C17.07 11.91 17.26 11 17.26 10C17.26 9.28 17.15 8.59 16.96 7.95C16.31 8.1 15.63 8.18 14.92 8.18C13.466 8.18156 12.0329 7.83352 10.7415 7.16522C9.45018 6.49692 8.33843 5.52796 7.5 4.34C6.60396 6.51074 4.91172 8.25665 2.77 9.22C2.73 9.47 2.73 9.74 2.73 10C2.73 10.9547 2.91804 11.9001 3.2834 12.7821C3.64875 13.6641 4.18425 14.4656 4.85933 15.1407C6.22272 16.5041 8.07188 17.27 10 17.27C11.05 17.27 12.06 17.04 12.97 16.63C13.54 17.72 13.8 18.26 13.78 18.26C12.14 18.81 10.87 19.08 10 19.08C7.58 19.08 5.27 18.13 3.57 16.42C2.53505 15.3899 1.76627 14.1235 1.33 12.73H0V8.18H1.09C1.42024 6.57251 2.17949 5.08441 3.28719 3.87359C4.39489 2.66277 5.80971 1.77441 7.38153 1.30276C8.95335 0.83111 10.6235 0.793772 12.2149 1.19471C13.8062 1.59564 15.2593 2.41989 16.42 3.58C17.6798 4.83558 18.5393 6.43628 18.89 8.18H20V12.73H19.94L16.38 16L11.08 15.4V13.73H15.91L16.72 12.76ZM7.27 9.77C7.57 9.77 7.86 9.89 8.07 10.11C8.28105 10.3228 8.39947 10.6103 8.39947 10.91C8.39947 11.2097 8.28105 11.4972 8.07 11.71C7.86 11.92 7.57 12.04 7.27 12.04C6.64 12.04 6.13 11.54 6.13 10.91C6.13 10.28 6.64 9.77 7.27 9.77ZM12.72 9.77C13.35 9.77 13.85 10.28 13.85 10.91C13.85 11.54 13.35 12.04 12.72 12.04C12.09 12.04 11.58 11.54 11.58 10.91C11.58 10.6077 11.7001 10.3177 11.9139 10.1039C12.1277 9.89011 12.4177 9.77 12.72 9.77Z" fill="black" fill-opacity="0.8"/>
</svg>
