<svg width="18" height="18" viewBox="0 0 18 18" fill="none" xmlns="http://www.w3.org/2000/svg">
<path fill-rule="evenodd" clip-rule="evenodd" d="M2.21319 4.80001C2.22819 5.55901 1.81519 6.58501 1.27819 7.12101C0.779899 7.61978 0.5 8.29598 0.5 9.00101C0.5 9.70604 0.779899 10.3822 1.27819 10.881C1.80819 11.409 2.19819 12.325 2.21319 13.073C2.22719 13.735 2.48619 14.393 2.99119 14.897C3.45711 15.3639 4.08038 15.6402 4.73919 15.672C5.53019 15.712 6.56619 16.172 7.12619 16.732C7.62493 17.23 8.3009 17.5097 9.00569 17.5097C9.71048 17.5097 10.3865 17.23 10.8852 16.732C11.4452 16.172 12.4812 15.712 13.2722 15.672C13.931 15.6402 14.5543 15.3639 15.0202 14.897C15.5059 14.412 15.7845 13.7573 15.7972 13.071C15.8122 12.325 16.1972 11.415 16.7262 10.887C17.2264 10.3884 17.508 9.71151 17.5091 9.00525C17.5103 8.29899 17.2308 7.62121 16.7322 7.12101C16.1962 6.58601 15.7822 5.55901 15.7982 4.80101C15.8057 4.44312 15.7407 4.08742 15.607 3.75537C15.4732 3.42332 15.2736 3.1218 15.0202 2.86901C14.7575 2.60565 14.4424 2.40054 14.0952 2.26701C13.748 2.13349 13.3766 2.07454 13.0052 2.09401C12.2912 2.13001 11.3902 1.78401 10.8852 1.27801C10.3864 0.779715 9.71023 0.499817 9.00519 0.499817C8.30016 0.499817 7.62397 0.779715 7.12519 1.27801C6.62119 1.78301 5.71919 2.13001 5.00519 2.09401C4.63391 2.07468 4.26271 2.1337 3.91573 2.26722C3.56875 2.40074 3.25375 2.60578 2.99119 2.86901C2.73787 3.12168 2.53834 3.42304 2.40463 3.75491C2.27092 4.08678 2.2058 4.44229 2.21319 4.80001ZM12.0412 5.62601C12.1561 5.68974 12.2572 5.77548 12.339 5.87833C12.4207 5.98118 12.4813 6.09912 12.5174 6.22542C12.5536 6.35171 12.5645 6.48389 12.5495 6.6144C12.5345 6.7449 12.494 6.87118 12.4302 6.98601L9.66219 11.968C9.59049 12.1037 9.48853 12.2211 9.36419 12.311C9.18351 12.4417 8.96432 12.5083 8.74145 12.5002C8.51858 12.492 8.30484 12.4096 8.13419 12.266L5.37519 10.059C5.27263 9.97693 5.18724 9.87546 5.12389 9.76038C5.06055 9.64531 5.02049 9.51888 5.006 9.38832C4.99151 9.25776 5.00289 9.12562 5.03946 8.99946C5.07604 8.8733 5.13712 8.75557 5.21919 8.65301C5.30127 8.55045 5.40274 8.46505 5.51782 8.40171C5.6329 8.33836 5.75933 8.2983 5.88988 8.28382C6.02044 8.26933 6.15258 8.2807 6.27874 8.31728C6.40491 8.35386 6.52263 8.41493 6.62519 8.49701L8.47819 9.98001L10.6812 6.01401C10.745 5.89923 10.8308 5.79815 10.9337 5.71653C11.0366 5.63491 11.1545 5.57436 11.2808 5.53833C11.4071 5.5023 11.5393 5.4915 11.6697 5.50654C11.8002 5.52159 11.9264 5.56218 12.0412 5.62601Z" fill="#147341"/>
</svg>
