<svg width="24" height="24" viewBox="0 0 24 24" fill="none" xmlns="http://www.w3.org/2000/svg">
<path d="M11.9999 0.333252C5.57158 0.333252 0.333252 5.57158 0.333252 11.9999C0.333252 18.4283 5.57158 23.6666 11.9999 23.6666C18.4283 23.6666 23.6666 18.4283 23.6666 11.9999C23.6666 5.57158 18.4283 0.333252 11.9999 0.333252ZM15.9199 14.6833C16.2583 15.0216 16.2583 15.5816 15.9199 15.9199C15.7449 16.0949 15.5233 16.1766 15.3016 16.1766C15.0799 16.1766 14.8583 16.0949 14.6833 15.9199L11.9999 13.2366L9.31658 15.9199C9.14158 16.0949 8.91992 16.1766 8.69825 16.1766C8.47659 16.1766 8.25492 16.0949 8.07992 15.9199C7.74159 15.5816 7.74159 15.0216 8.07992 14.6833L10.7633 11.9999L8.07992 9.31658C7.74159 8.97825 7.74159 8.41825 8.07992 8.07992C8.41825 7.74159 8.97825 7.74159 9.31658 8.07992L11.9999 10.7633L14.6833 8.07992C15.0216 7.74159 15.5816 7.74159 15.9199 8.07992C16.2583 8.41825 16.2583 8.97825 15.9199 9.31658L13.2366 11.9999L15.9199 14.6833Z" fill="#1E1E1E"/>
</svg>
